HIERARCHY
ROOT Hips
{
    OFFSET   0.000000   0.000000   0.000000
    CHANNELS 6 Xposition Yposition Zposition Zrotation Xrotation Yrotation
    JOINT Chest
    {
        OFFSET   0.000000   8.007240   0.000000
        CHANNELS 3 Zrotation Xrotation Yrotation
        JOINT Chest2
        {
            OFFSET   0.000000  22.077100   0.000000
            CHANNELS 3 Zrotation Xrotation Yrotation
            JOINT Neck
            {
                OFFSET   0.000000  23.254800   0.000000
                CHANNELS 3 Zrotation Xrotation Yrotation
                JOINT Head
                {
                    OFFSET   0.000000  14.370000   1.956600
                    CHANNELS 3 Zrotation Xrotation Yrotation
                    End Site
                    {
                        OFFSET   0.000000  19.566000   0.000000
                    }
                }
            }
            JOINT LeftCollar
            {
                OFFSET   3.911900  19.017000  -0.467064
                CHANNELS 3 Zrotation Xrotation Yrotation
                JOINT LeftShoulder
                {
                    OFFSET  10.383700   0.000000   0.000000
                    CHANNELS 3 Zrotation Xrotation Yrotation
                    JOINT LeftElbow
                    {
                        OFFSET  26.662100   0.001476   0.000517
                        CHANNELS 3 Zrotation Xrotation Yrotation
                        JOINT LeftWrist
                        {
                            OFFSET  28.869000  -0.000025  -0.000106
                            CHANNELS 3 Zrotation Xrotation Yrotation
                            JOINT LeftFinger0
                            {
                                OFFSET   2.044660  -2.323460   3.252850
                                CHANNELS 3 Zrotation Xrotation Yrotation
                                JOINT LeftFinger01
                                {
                                    OFFSET   3.088130   0.000000   0.000000
                                    CHANNELS 3 Zrotation Xrotation Yrotation
                                    JOINT LeftFinger02
                                    {
                                        OFFSET   2.639460   0.000000   0.000000
                                        CHANNELS 3 Zrotation Xrotation Yrotation
                                        End Site
                                        {
                                            OFFSET   2.582190   0.000000   0.000000
                                        }
                                    }
                                }
                            }
                            JOINT LeftFinger1
                            {
                                OFFSET   8.364480   0.000000   3.252850
                                CHANNELS 3 Zrotation Xrotation Yrotation
                                JOINT LeftFinger11
                                {
                                    OFFSET   4.646930   0.000000   0.000000
                                    CHANNELS 3 Zrotation Xrotation Yrotation
                                    JOINT LeftFinger12
                                    {
                                        OFFSET   2.323460   0.000000   0.000000
                                        CHANNELS 3 Zrotation Xrotation Yrotation
                                        End Site
                                        {
                                            OFFSET   2.273050   0.000000   0.000000
                                        }
                                    }
                                }
                            }
                            JOINT LeftFinger2
                            {
                                OFFSET   8.364490   0.000015   1.078090
                                CHANNELS 3 Zrotation Xrotation Yrotation
                                JOINT LeftFinger21
                                {
                                    OFFSET   5.111620   0.000000   0.000000
                                    CHANNELS 3 Zrotation Xrotation Yrotation
                                    JOINT LeftFinger22
                                    {
                                        OFFSET   2.788160   0.000016   0.000000
                                        CHANNELS 3 Zrotation Xrotation Yrotation
                                        End Site
                                        {
                                            OFFSET   2.727660   0.000000   0.000000
                                        }
                                    }
                                }
                            }
                            JOINT LeftFinger3
                            {
                                OFFSET   7.899780   0.000017  -1.078090
                                CHANNELS 3 Zrotation Xrotation Yrotation
                                JOINT LeftFinger31
                                {
                                    OFFSET   4.646930   0.000000   0.000000
                                    CHANNELS 3 Zrotation Xrotation Yrotation
                                    JOINT LeftFinger32
                                    {
                                        OFFSET   2.323470   0.000000   0.000000
                                        CHANNELS 3 Zrotation Xrotation Yrotation
                                        End Site
                                        {
                                            OFFSET   2.273050   0.000000   0.000000
                                        }
                                    }
                                }
                            }
                            JOINT LeftFinger4
                            {
                                OFFSET   7.435090   0.000000  -3.252850
                                CHANNELS 3 Zrotation Xrotation Yrotation
                                JOINT LeftFinger41
                                {
                                    OFFSET   3.717550   0.000000   0.000000
                                    CHANNELS 3 Zrotation Xrotation Yrotation
                                    JOINT LeftFinger42
                                    {
                                        OFFSET   1.858770   0.000000   0.000000
                                        CHANNELS 3 Zrotation Xrotation Yrotation
                                        End Site
                                        {
                                            OFFSET   1.818440   0.000000   0.000000
                                        }
                                    }
                                }
                            }
                        }
                    }
                }
            }
            JOINT RightCollar
            {
                OFFSET  -3.911900  19.017000  -0.467063
                CHANNELS 3 Zrotation Xrotation Yrotation
                JOINT RightShoulder
                {
                    OFFSET -10.383700   0.000019   0.000000
                    CHANNELS 3 Zrotation Xrotation Yrotation
                    JOINT RightElbow
                    {
                        OFFSET -26.662100   0.001175   0.000102
                        CHANNELS 3 Zrotation Xrotation Yrotation
                        JOINT RightWrist
                        {
                            OFFSET -28.869000   0.000016  -0.000079
                            CHANNELS 3 Zrotation Xrotation Yrotation
                            JOINT RightFinger0
                            {
                                OFFSET  -2.044660  -2.323490   3.252850
                                CHANNELS 3 Zrotation Xrotation Yrotation
                                JOINT RightFinger01
                                {
                                    OFFSET  -3.088140   0.000000   0.000000
                                    CHANNELS 3 Zrotation Xrotation Yrotation
                                    JOINT RightFinger02
                                    {
                                        OFFSET  -2.639460   0.000000   0.000000
                                        CHANNELS 3 Zrotation Xrotation Yrotation
                                        End Site
                                        {
                                            OFFSET  -2.582190   0.000000   0.000000
                                        }
                                    }
                                }
                            }
                            JOINT RightFinger1
                            {
                                OFFSET  -8.364480   0.000000   3.252850
                                CHANNELS 3 Zrotation Xrotation Yrotation
                                JOINT RightFinger11
                                {
                                    OFFSET  -4.646930   0.000000   0.000000
                                    CHANNELS 3 Zrotation Xrotation Yrotation
                                    JOINT RightFinger12
                                    {
                                        OFFSET  -2.323470   0.000000   0.000000
                                        CHANNELS 3 Zrotation Xrotation Yrotation
                                        End Site
                                        {
                                            OFFSET  -2.273050   0.000000   0.000000
                                        }
                                    }
                                }
                            }
                            JOINT RightFinger2
                            {
                                OFFSET  -8.364480   0.000000   1.078090
                                CHANNELS 3 Zrotation Xrotation Yrotation
                                JOINT RightFinger21
                                {
                                    OFFSET  -5.111620   0.000000   0.000000
                                    CHANNELS 3 Zrotation Xrotation Yrotation
                                    JOINT RightFinger22
                                    {
                                        OFFSET  -2.788160   0.000000   0.000000
                                        CHANNELS 3 Zrotation Xrotation Yrotation
                                        End Site
                                        {
                                            OFFSET  -2.727660   0.000000   0.000000
                                        }
                                    }
                                }
                            }
                            JOINT RightFinger3
                            {
                                OFFSET  -7.899780   0.000000  -1.078090
                                CHANNELS 3 Zrotation Xrotation Yrotation
                                JOINT RightFinger31
                                {
                                    OFFSET  -4.646930   0.000000   0.000000
                                    CHANNELS 3 Zrotation Xrotation Yrotation
                                    JOINT RightFinger32
                                    {
                                        OFFSET  -2.323470   0.000000   0.000000
                                        CHANNELS 3 Zrotation Xrotation Yrotation
                                        End Site
                                        {
                                            OFFSET  -2.273050   0.000000   0.000000
                                        }
                                    }
                                }
                            }
                            JOINT RightFinger4
                            {
                                OFFSET  -7.435090   0.000000  -3.252850
                                CHANNELS 3 Zrotation Xrotation Yrotation
                                JOINT RightFinger41
                                {
                                    OFFSET  -3.717550   0.000000   0.000000
                                    CHANNELS 3 Zrotation Xrotation Yrotation
                                    JOINT RightFinger42
                                    {
                                        OFFSET  -1.858770   0.000000   0.000000
                                        CHANNELS 3 Zrotation Xrotation Yrotation
                                        End Site
                                        {
                                            OFFSET  -1.818440   0.000000   0.000000
                                        }
                                    }
                                }
                            }
                        }
                    }
                }
            }
        }
    }
    JOINT LeftHip
    {
        OFFSET   9.783040   0.000000   0.000000
        CHANNELS 3 Zrotation Xrotation Yrotation
        JOINT LeftKnee
        {
            OFFSET   0.000032 -41.789100  -0.002222
            CHANNELS 3 Zrotation Xrotation Yrotation
            JOINT LeftAnkle
            {
                OFFSET   0.000087 -41.133200  -0.000135
                CHANNELS 3 Zrotation Xrotation Yrotation
                JOINT LeftToe
                {
                    OFFSET   0.000000  -6.358960  14.674500
                    CHANNELS 3 Zrotation Xrotation Yrotation
                    End Site
                    {
                        OFFSET   0.000000   0.000000   3.913200
                    }
                }
            }
        }
    }
    JOINT RightHip
    {
        OFFSET  -9.783040   0.000000   0.000000
        CHANNELS 3 Zrotation Xrotation Yrotation
        JOINT RightKnee
        {
            OFFSET   0.000047 -41.789100  -0.000896
            CHANNELS 3 Zrotation Xrotation Yrotation
            JOINT RightAnkle
            {
                OFFSET  -0.000117 -41.133300  -0.000248
                CHANNELS 3 Zrotation Xrotation Yrotation
                JOINT RightToe
                {
                    OFFSET   0.000000  -6.358970  14.674500
                    CHANNELS 3 Zrotation Xrotation Yrotation
                    End Site
                    {
                        OFFSET   0.000000   0.000000   3.913200
                    }
                }
            }
        }
    }
}
MOTION
Frames: 4
Frame Time:   0.016667
 -0.797958  89.532100  -0.331488  -2.188650  -3.191420   2.833380   1.714570   3.135920  -1.276600   3.506600   6.231340  -2.652660   0.517396  -0.949242   0.008070   0.855341  -1.924180   7.508920  -7.717810   3.174840   1.180910 -72.698600   8.116900  -7.583870  -2.365730  -5.445190 -13.767900   4.631130  -3.533400  10.991600  42.973000  31.188200 -62.357900 -23.770100  -0.002352   0.000188  -6.885050   0.005726   0.000919 -27.633100   4.354150  -8.260800 -22.866700  -0.007180   0.007193 -16.005100  -0.006703   0.005945 -26.820200   1.724760  -3.393420 -26.874100  -0.000911   0.001366 -17.898200  -0.000883  -0.005209 -26.616200  -0.709710   1.415920 -26.625000  -0.000383   0.001135 -17.731900  -0.000482   0.001294 -28.875400  -0.764987   1.386850 -43.327000  -0.001184   0.000868 -28.855800  -0.001137   0.000382   6.299930   1.031480  11.610700  72.380600  -3.475540   4.923240  -2.481710  -9.516830  13.687100 -10.241100 -18.820800   2.365870 -39.666000  35.719500  68.605600  32.217800   0.007237  -0.004515  11.108900   0.012120   0.001814  32.051800   6.526520  10.288800  26.706000  -0.002882   0.002558  18.694200   0.009564  -0.002388  28.064100   3.936390   7.338060  34.330200  -0.003867   0.004336  22.863900  -0.001130  -0.012449  28.445800   1.796060   3.311210  36.127100  -0.005090   0.002531  24.060700  -0.001695  -0.002571  33.311800   0.613614   0.933647  49.975300  -0.001939  -0.003312  33.283500   0.003392  -0.001743   2.776860   6.797100   3.325700   1.264340  -0.039376   9.346140  -2.491320  -2.649180   1.867450   0.000000   0.000000  -0.000000   1.970170   2.540030  -5.622660   1.430440   3.753920  -8.155080  -3.649350  -3.073530  -3.500750   0.000000   0.000000   0.000000
 -0.797943  89.532100  -0.339214  -2.187470  -3.196130   2.848930   1.714690   3.144290  -1.273310   3.506870   6.248190  -2.646360   0.513606  -0.933758   0.008065   0.849527  -1.892930   7.515270  -7.717600   3.182650   1.173410 -72.711200   8.180510  -7.614980  -2.374590  -5.464100 -13.751800   4.624740  -3.505400  10.976300  42.970800  31.172700 -62.340000 -23.754000  -0.002360   0.000181  -6.877020   0.005719   0.000945 -27.623500   4.354310  -8.260800 -22.858400  -0.007171   0.007192 -16.005100  -0.006681   0.005949 -26.820100   1.725270  -3.398940 -26.874200  -0.000894   0.001357 -17.898300  -0.000870  -0.005212 -26.616500  -0.709710   1.415920 -26.625300  -0.000365   0.001125 -17.732000  -0.000469   0.001283 -28.875400  -0.764987   1.386850 -43.327000  -0.001167   0.000862 -28.855800  -0.001126   0.000387   6.299850   1.034340  11.585400  72.422600  -3.442610   4.937390  -2.470640  -9.550880  13.757000 -10.243900 -19.113100   2.322400 -39.561800  35.543700  68.438600  32.210100   0.007230  -0.004513  11.105100   0.012125   0.001775  32.127400   6.503310  10.224000  26.763200  -0.002900   0.002564  18.734200   0.009577  -0.002386  28.068500   3.923290   7.312180  34.365400  -0.003884   0.004331  22.887400  -0.001173  -0.012451  28.450700   1.785620   3.291310  36.176400  -0.005111   0.002540  24.093500  -0.001726  -0.002566  33.332000   0.609478   0.926663  50.005700  -0.001985  -0.003310  33.303700   0.003388  -0.001742   2.780590   6.750370   3.324700   1.265660   0.049121   9.335050  -2.499940  -2.682800   1.857170  -0.000000   0.000000   0.000000   1.970510   2.541230  -5.622540   1.430780   3.748310  -8.155050  -3.649260  -3.065730  -3.509610  -0.000000   0.000000   0.000000
 -0.797904  89.532100  -0.351883  -2.185680  -3.204460   2.871040   1.714830   3.158300  -1.268330   3.507300   6.276340  -2.636870   0.507852  -0.906654   0.008027   0.840593  -1.838110   7.521540  -7.717240   3.198740   1.159130 -72.730500   8.276490  -7.663350  -2.392250  -5.495730 -13.732200   4.616790  -3.472200  10.951400  42.966100  31.147700 -62.311200 -23.738000  -0.002380   0.000161  -6.868990   0.005706   0.001001 -27.612600   4.354480  -8.260800 -22.849500  -0.007148   0.007190 -16.005200  -0.006624   0.005959 -26.820200   1.725780  -3.404450 -26.874500  -0.000851   0.001335 -17.898500  -0.000838  -0.005218 -26.616800  -0.709710   1.415920 -26.625600  -0.000321   0.001100 -17.732200  -0.000435   0.001252 -28.875400  -0.764987   1.386850 -43.327000  -0.001124   0.000847 -28.855800  -0.001099   0.000399   6.299180   1.042190  11.538000  72.513300  -3.386680   4.959300  -2.479020  -9.619870  13.930000 -10.245600 -19.780900   2.242700 -39.403600  35.229900  68.161600  32.156400   0.007208  -0.004500  11.078200   0.012140   0.001685  32.254100   6.468330  10.121700  26.859700  -0.002942   0.002580  18.801800   0.009611  -0.002383  28.077500   3.903430   7.272340  34.436600  -0.003922   0.004323  22.934800  -0.001269  -0.012454  28.460100   1.767730   3.257110  36.273000  -0.005158   0.002564  24.157800  -0.001801  -0.002553  33.372600   0.602260   0.914320  50.066500  -0.002090  -0.003307  33.344300   0.003385  -0.001736   2.786210   6.703630   3.323700   1.267030   0.137626   9.319080  -2.508660  -2.716430   1.844730  -0.000000   0.000000   0.000000   1.971070   2.544200  -5.622390   1.433030   3.739560  -8.155000  -3.649250  -3.053380  -3.525180   0.000000   0.000000  -0.000000
 -0.797837  89.532100  -0.361463  -2.184540  -3.211680   2.881700   1.714460   3.169370  -1.264850   3.506670   6.298580  -2.630330   0.504641  -0.881971   0.007916   0.834415  -1.787910   7.515400  -7.716930   3.217790   1.143050 -72.740900   8.334060  -7.694970  -2.413570  -5.527750 -13.728400   4.620430  -3.466250  10.931700  42.957000  31.126600 -62.283200 -23.738000  -0.002409   0.000128  -6.869000   0.005692   0.001073 -27.611200   4.354080  -8.259890 -22.848700  -0.007114   0.007188 -16.005200  -0.006539   0.005974 -26.820900   1.723010  -3.401400 -26.874800  -0.000787   0.001302 -17.898700  -0.000790  -0.005229 -26.614800  -0.712272   1.421130 -26.623600  -0.000253   0.001063 -17.730500  -0.000385   0.001203 -28.871000  -0.767690   1.391990 -43.320600  -0.001058   0.000824 -28.851500  -0.001059   0.000417   6.295750   1.055820  11.488500  72.627800  -3.341180   4.972240  -2.537740  -9.703700  14.185300 -10.269300 -20.667100   2.152730 -39.302600  34.920100  67.921100  32.010600   0.007170  -0.004459  11.005300   0.012165   0.001552  32.355800   6.448480  10.052600  26.938100  -0.003000   0.002607  18.856700   0.009665  -0.002382  28.088000   3.891910   7.247920  34.516200  -0.003974   0.004314  22.987800  -0.001407  -0.012456  28.469900   1.753360   3.229350  36.377600  -0.005226   0.002601  24.227400  -0.001916  -0.002540  33.418100   0.597769   0.905957  50.134900  -0.002244  -0.003318  33.389900   0.003392  -0.001720   2.789870   6.728740   3.323950   1.263650   0.088404   9.310510  -2.506240  -2.684180   1.842180   0.000000   0.000000   0.000000   1.971590   2.549050  -5.622360   1.438350   3.732700  -8.150980  -3.649570  -3.045210  -3.540530  -0.000000   0.000000  -0.000000
